<?xml version="1.0"?>
<svg xmlns="http://www.w3.org/2000/svg" viewBox="0 0 512 512" width="512" height="512"><g id="Solid"><path d="M192,408H176a8,8,0,0,1-7.589-5.47l-16-48a8,8,0,0,1,1.443-7.651l30.689-36.831L155.651,304.8A163.89,163.89,0,0,1,120,341.137V358.3L149.2,424H200v-8A8.009,8.009,0,0,0,192,408Z"/><path d="M346.977,187.651l-62.151,80.8,32.628,24.95,51.994-77.992A34.528,34.528,0,0,1,398.234,200h19.981L404.5,176H370.639A30.038,30.038,0,0,0,346.977,187.651Z"/><path d="M230.973,89.027a40.134,40.134,0,0,0-29.946,29.946A40.134,40.134,0,0,0,230.973,89.027Z"/><path d="M387.917,156.405A24.557,24.557,0,0,1,371.772,128H357.857A44.47,44.47,0,0,0,326.2,141.112L243.494,223.82a105.827,105.827,0,0,0,28.635,34.891L334.3,177.9A46.138,46.138,0,0,1,370.639,160h24.718l-.787-1.377Z"/><path d="M451.2,150.4a8.032,8.032,0,0,1-1.856-1.962L435.719,128H408a8.027,8.027,0,0,1-2.53-.41l-7.154-2.385a8.442,8.442,0,0,0-10.861,5.963,8.481,8.481,0,0,0,5.521,10.058l9.554,3.184a8.006,8.006,0,0,1,4.416,3.621L436.643,200h29.94L478.3,170.722Z"/><path d="M314.888,129.8A60.369,60.369,0,0,1,357.857,112H383.52c.122-.07.241-.145.364-.213a24.524,24.524,0,0,1,19.492-1.762L409.3,112h17.753l-1.365-2.729A23.869,23.869,0,0,0,404.22,96H344.89a55.843,55.843,0,0,0-37.833,14.717l-75,68.751a104.384,104.384,0,0,0,4.849,28.313Z"/><path d="M398.234,216a18.561,18.561,0,0,0-15.473,8.28l-52.57,78.856,27.741,21.213,47.488-74.624a24.018,24.018,0,0,1,16.316-10.787l30.6-5.109a7.971,7.971,0,0,0,6.444-5.943L461.751,216H398.234Z"/><path d="M305.086,304.081l-41.468-31.708a121.867,121.867,0,0,1-35.061-42.621c-.66-1.332-1.247-2.572-1.788-3.781-.062-.132-.123-.266-.183-.4-.016-.036-.045-.1-.062-.137A120.391,120.391,0,0,1,216.269,184H176c-.266,0-.532-.014-.8-.04l-37.06-3.71a74.95,74.95,0,0,0-56.251,17.8c-.641.55-1.27,1.116-1.892,1.688V200h-.284a72.593,72.593,0,0,0-5.725,5.968A74.766,74.766,0,0,0,56,254.6V312a8,8,0,0,1-1.14,4.116L32.451,353.464,46.559,424H96v-8a8.009,8.009,0,0,0-8-8H72a8,8,0,0,1-7.845-6.431l-8-40a8,8,0,0,1,5.66-9.265l.53-.151a148.2,148.2,0,0,0,45.034-21.585,148.158,148.158,0,0,0,37.77-38.721c.6-1.134,1.209-2.267,1.835-3.423,5.131-9.472,10.438-19.267,13.078-40.415l15.876,1.982c-2.434,19.5-7.2,31.181-11.731,40.1L240.722,304H304A7.966,7.966,0,0,1,305.086,304.081Z"/><path d="M376,408H360a8,8,0,0,1-8-8V339.954l-40.64-31.076a8.037,8.037,0,0,1,.485,1.553L334.559,424H384v-8A8.009,8.009,0,0,0,376,408Z"/><polygon points="273.758 320 294.559 424 318.241 424 297.441 320 273.758 320"/><path d="M64,200V184H52a20,20,0,0,1,0-40H161.373a62.6,62.6,0,0,0,32.873-9.321l-8.4-13.619A46.612,46.612,0,0,1,161.373,128H52a36,36,0,0,0,0,72Z"/></g></svg>
